inDegrees=no
num_controls=7
num_derivatives=13
num_iterations=102
num_multipliers=7
num_parameters=0
num_slacks=7
num_states=26
objective=0.497396
objective_accelerations=0.032256
objective_balance=0.003297
objective_effort=0.034923
objective_height=0.421439
objective_ligament=0.005481
solver_duration=1124.540160
status=Solve_Succeeded
success=true
DataType=double
version=3
OpenSimVersion=4.5
endheader
time	/jointset/ground_pelvis/pelvis_tilt/value	/jointset/ground_pelvis/pelvis_tx/value	/jointset/ground_pelvis/pelvis_ty/value	/jointset/hip_r/hip_flexion_r/value	/jointset/hip_r/hip_adduction_r/value	/jointset/hip_r/hip_rotation_r/value	/jointset/back/lumbar_extension/value	/jointset/patellofemoral_r/patellar_flexion_r/value	/jointset/knee_r/knee_flexion_r/value	/jointset/knee_r/knee_adduction_r/value	/jointset/knee_r/knee_rotation_r/value	/jointset/ankle_r/ankle_angle_r/value	/jointset/subtalar_r/subtalar_angle_r/value	/jointset/ground_pelvis/pelvis_tilt/speed	/jointset/ground_pelvis/pelvis_tx/speed	/jointset/ground_pelvis/pelvis_ty/speed	/jointset/hip_r/hip_flexion_r/speed	/jointset/hip_r/hip_adduction_r/speed	/jointset/hip_r/hip_rotation_r/speed	/jointset/back/lumbar_extension/speed	/jointset/patellofemoral_r/patellar_flexion_r/speed	/jointset/knee_r/knee_flexion_r/speed	/jointset/knee_r/knee_adduction_r/speed	/jointset/knee_r/knee_rotation_r/speed	/jointset/ankle_r/ankle_angle_r/speed	/jointset/subtalar_r/subtalar_angle_r/speed	/forceset/tau_hip_flexion_r	/forceset/tau_hip_adduction_r	/forceset/tau_hip_rotation_r	/forceset/tau_knee_flexion_r	/forceset/tau_ankle_angle_r	/forceset/tau_subtalar_angle_r	/forceset/tau_lumbar_extension	lambda_cid13_p0	lambda_cid14_p0	lambda_cid14_p1	lambda_cid14_p2	lambda_cid14_p3	lambda_cid14_p4	lambda_cid14_p5	/jointset/ground_pelvis/pelvis_tilt/accel	/jointset/ground_pelvis/pelvis_tx/accel	/jointset/ground_pelvis/pelvis_ty/accel	/jointset/hip_r/hip_flexion_r/accel	/jointset/hip_r/hip_adduction_r/accel	/jointset/hip_r/hip_rotation_r/accel	/jointset/back/lumbar_extension/accel	/jointset/patellofemoral_r/patellar_flexion_r/accel	/jointset/knee_r/knee_flexion_r/accel	/jointset/knee_r/knee_adduction_r/accel	/jointset/knee_r/knee_rotation_r/accel	/jointset/ankle_r/ankle_angle_r/accel	/jointset/subtalar_r/subtalar_angle_r/accel	gamma_cid13_p0	gamma_cid14_p0	gamma_cid14_p1	gamma_cid14_p2	gamma_cid14_p3	gamma_cid14_p4	gamma_cid14_p5
0	-0.006514535884385633	0.09625991599474162	0.9427241191806192	0.1762555222360518	-0.2321523811353288	-0.2616363086335573	-0.038598046466844	0.07317863873452506	0.07317863873451017	0.1745317736387167	0.1745286234693411	0.03247278518263602	-0.003451703560904451	0	0	0	0	0	0	0	0	0	0	0	0	0	0.2099547067553033	-0.1447898176009331	-0.04158310819406785	-0.388439975053788	0.382405029924435	-0.1512197783362018	-0.1087407271603577	-39.07606780535582	72.80060890719975	-43.06438890544601	-3.940881547216004	-30.29138103126946	-680.3183790882715	48.48257687315284	-1.258066046495543	-0.9222084786357966	-0.4765314603990975	7.341740678579685	0.2935835467704495	2.207854535745309	-4.779038951261278	8.215717919344298	8.2157179193457	-2.813120776364303	0.09842545953423561	2.948358467315547	0.9746871231029302	9.535708045300527e-08	6.934739519549672e-08	-5.774970922932646e-07	2.379260760127865e-07	1.899911120995067e-08	2.415101122837287e-08	-3.380822194437784e-07
0.01	-0.006571985847401512	0.09621724246092954	0.942701301322769	0.1766077153842969	-0.2321375176528329	-0.2615173844191733	-0.03883767517366724	0.07357938466390292	0.07357938466388105	0.1743926123972192	0.1745225629333558	0.03262087007024363	-0.00340273044497306	-0.01142498368920256	-0.008215927729812202	-0.004552151326855096	0.06983868192080646	0.002818822394665346	0.02371954464915919	-0.04751042791922255	0.07997086620990031	0.07997086620990793	-0.02745299019131649	-0.001160508212213592	0.02988765668099089	0.009694749929317905	0.2135915816349183	-0.1631072934238156	-0.04332071141892471	-0.4020305885053243	0.4044498803617882	-0.1416132538993852	-0.1101251690118542	-39.08932528972201	80.36661981487187	-37.67078293396901	-4.682821540808051	-38.50337074272639	-680.6587001680246	60.03311214228363	-1.074956324336063	-0.7234642661856092	-0.4428391021360359	6.714946787088592	0.2529015004831298	2.444262688373643	-4.674747694906474	7.861003951031647	7.861003951031919	-2.654563322398346	-0.2154873778790083	3.049588218835141	0.9518241195914434	1.184206582028938e-07	6.26352200342376e-08	-7.642532478935229e-07	2.002509100878152e-07	4.97317989250904e-08	-1.087371006788465e-07	-3.667164323679787e-07
0.02	-0.00674173400616726	0.09610197378061236	0.942633305524988	0.1776402983194029	-0.2320990919634567	-0.2611632131065284	-0.03953994875621473	0.07477448585120547	0.07477448585120476	0.1739902862174312	0.174506457632061	0.03307595531472907	-0.003259818791399441	-0.02245963914647188	-0.01451902930101879	-0.009035587986157919	0.1360779573719142	0.004712441376070381	0.04704941965320931	-0.09252897514455408	0.1588710515885526	0.1588710515885605	-0.05263298765794781	-0.00200895307561997	0.06140007137574864	0.01878770752844035	0.217228456514646	-0.1814247692466957	-0.0450583146435889	-0.4156212019568532	0.4264947307991516	-0.1320067294625659	-0.1115096108632618	-39.12868135709821	88.00682332669007	-32.28768541815251	-5.396242860798273	-46.88637176034954	-679.870512344183	71.35518416416799	-1.180000400108588	-0.5396432469149394	-0.4627885268886396	6.621859384639975	0.1085428641183152	2.129920606723422	-4.280662812482884	8.001581753094772	8.001581753094719	-2.358522231427137	0.1608381292957779	3.273310070068615	0.8543286570636908	1.414842359527823e-07	5.592304487297848e-08	-9.510094034937811e-07	1.62575744162844e-07	8.046448664023012e-08	-2.416252125860659e-07	-3.95350645292179e-07
0.03	-0.007020463825024131	0.09592966441351136	0.9425205829469699	0.1793212800873699	-0.2320453350836541	-0.260581171665445	-0.04068080521232349	0.07675161423232127	0.07675161423232287	0.1733462424622208	0.1744856463764796	0.03384893878407558	-0.003029072026308799	-0.0332449313936671	-0.01998036288225875	-0.01351354199151598	0.1998766034641765	0.006020140754914115	0.0692054578789618	-0.1353487752813801	0.2361529597784618	0.2361529597784398	-0.07599964695592842	-0.00215254034806568	0.09293651595316248	0.02728568993283164	0.2096506544744758	-0.1905964820811285	-0.04264770075149939	-0.4039395020465547	0.4051017092181555	-0.1158822440887923	-0.1058203866874675	-39.19347661603624	81.74168722473114	-26.4826421085624	-6.206541508638757	-42.52970152981048	-679.5825392958732	81.76504946865067	-1.021570207010497	-0.5549900118081744	-0.441039855412377	6.222607545231502	0.1389537549520562	2.235482772783308	-4.23860749440432	7.531217233899741	7.531217233895474	-2.299452879036023	-0.1017797583337484	3.054824200709128	0.836007603101826	1.626650077197175e-07	6.307438835537607e-08	-1.081566567826205e-06	2.026615464547579e-07	9.47277731381761e-08	-3.274749626490195e-07	-4.745304439721992e-07
0.04	-0.0074058018803663	0.09570161939098153	0.9423629326252865	0.1816329963809891	-0.2319790871540232	-0.2597821623736365	-0.04224105344582813	0.07948950607171444	0.07948950607171432	0.172473789093996	0.1744634347276159	0.03492948920902311	-0.002715650522979379	-0.04378128644019458	-0.02566616038678315	-0.01802113671921034	0.2622248625049404	0.007210651341148602	0.09044298979599556	-0.1764073306230423	0.3110237432467995	0.3110237432467524	-0.09831491025600367	-0.002289031733269743	0.1229134624958251	0.03532265517621891	0.2020728524342533	-0.1997681949155708	-0.04023708685938005	-0.3922578021363334	0.3837086876371252	-0.09975775871503677	-0.1001311625116772	-39.28255317056885	75.5450476348543	-20.67616137032871	-7.005011340297426	-38.35233775960458	-678.284404257227	91.99253673885927	-1.130212959974736	-0.5845360315720737	-0.4687166713558955	6.331781974340325	0.08510510559642019	1.946219344979588	-3.92841385344991	7.51935680878055	7.519356808781467	-2.148243031845985	0.1622573067442147	2.961410463118107	0.7621252248627769	1.838069587447362e-07	7.051157758300368e-08	-1.210964990070633e-06	2.443506676789788e-07	1.086514843532934e-07	-4.123548495811635e-07	-5.547524196781126e-07
0.05	-0.007895189232062533	0.09541616197909539	0.9421599212213609	0.1845609432306375	-0.2319015537249693	-0.2587766256102346	-0.0442028588277656	0.08296563251010387	0.08296563251009596	0.1713833809525112	0.17444139862811	0.03630338008819377	-0.002323847889752729	-0.05401541970814421	-0.03140367702479936	-0.02259429659115765	0.3230457336487915	0.00825969038757444	0.1105318857485986	-0.2156687646771684	0.3838700417233767	0.3838700417233465	-0.1195605852042737	-0.002126111489986188	0.15171126667408	0.04296893507555021	0.1955277719605509	-0.1828249633678896	-0.03853277276589762	-0.3844496260969166	0.3744255402625313	-0.1093250374272898	-0.09501185613935147	-39.39437916143371	72.26458381119187	-25.43012882836019	-6.219099690103218	-36.04889207351726	-677.3100480055649	81.07440486518493	-0.9578774577959392	-0.5650908928861719	-0.4536716807534624	5.909436585152222	0.1092234027777016	2.020421594142937	-3.882261017828132	7.117504029014307	7.117504029016316	-2.081971471002105	-0.05779306409711308	2.815984644204499	0.7553754854541233	1.788986547363522e-07	6.379293033083937e-08	-1.172363449510624e-06	2.296840548071449e-07	1.121167295089382e-07	-4.728884007013073e-07	-5.402621863720575e-07
